HIERARCHY
ROOT newVegas:Hips
{
	OFFSET 0.000000 96.479958 0.000000
	CHANNELS 6 Xposition Yposition Zposition Xrotation Yrotation Zrotation
	JOINT newVegas:Pelvis
	{
		OFFSET 0.000000 0.000000 0.000000
		CHANNELS 3 Xrotation Yrotation Zrotation
		JOINT newVegas:LeftUpLeg
		{
			OFFSET 18.735201 -5.666702 -4.541200
			CHANNELS 3 Xrotation Yrotation Zrotation
			JOINT newVegas:LeftLeg
			{
				OFFSET -0.021200 -31.938179 0.493100
				CHANNELS 3 Xrotation Yrotation Zrotation
				JOINT newVegas:LeftFoot
				{
					OFFSET 0.021200 -31.938179 -4.336299
					CHANNELS 3 Xrotation Yrotation Zrotation
					JOINT newVegas:LeftToeBase
					{
						OFFSET 0.943001 -26.722000 15.023500
						CHANNELS 3 Xrotation Yrotation Zrotation
						End Site
						{
							OFFSET 0.000000 30.670183 0.000000
						}
					}
				}
				JOINT newVegas:Left_PantLeg
				{
					OFFSET 0.663870 -9.044666 -1.108900
					CHANNELS 3 Xrotation Yrotation Zrotation
					End Site
					{
						OFFSET 1.415995 20.635357 0.000000
					}
				}
			}
		}
		JOINT newVegas:RightUpLeg
		{
			OFFSET -18.735201 -5.666702 -4.541200
			CHANNELS 3 Xrotation Yrotation Zrotation
			JOINT newVegas:RightLeg
			{
				OFFSET 0.018946 -31.938133 0.493100
				CHANNELS 3 Xrotation Yrotation Zrotation
				JOINT newVegas:RightFoot
				{
					OFFSET -0.018946 -31.938126 -4.336299
					CHANNELS 3 Xrotation Yrotation Zrotation
					JOINT newVegas:RightToeBase
					{
						OFFSET -0.943001 -26.722004 15.023500
						CHANNELS 3 Xrotation Yrotation Zrotation
						End Site
						{
							OFFSET 0.000000 30.670187 0.000000
						}
					}
				}
				JOINT newVegas:Right_PantLeg
				{
					OFFSET -0.661674 -9.044716 -1.108900
					CHANNELS 3 Xrotation Yrotation Zrotation
					End Site
					{
						OFFSET -1.415958 20.635269 0.000000
					}
				}
			}
		}
	}
	JOINT newVegas:Spine
	{
		OFFSET 0.000000 10.199997 -0.299500
		CHANNELS 3 Xrotation Yrotation Zrotation
		JOINT newVegas:Spine1
		{
			OFFSET 0.000000 11.900002 -1.516600
			CHANNELS 3 Xrotation Yrotation Zrotation
			JOINT newVegas:Spine2
			{
				OFFSET 0.000000 13.600006 -2.842500
				CHANNELS 3 Xrotation Yrotation Zrotation
				JOINT newVegas:Neck
				{
					OFFSET 0.000000 9.624100 -2.890100
					CHANNELS 3 Xrotation Yrotation Zrotation
					JOINT newVegas:Head
					{
						OFFSET 0.000000 14.068802 -1.351900
						CHANNELS 3 Xrotation Yrotation Zrotation
						JOINT newVegas:Hair_Back
						{
							OFFSET 0.000000 3.231903 -17.524799
							CHANNELS 3 Xrotation Yrotation Zrotation
							End Site
							{
								OFFSET 0.000000 19.849884 0.000000
							}
						}
						JOINT newVegas:Hair_Front
						{
							OFFSET 0.000000 31.260406 4.573800
							CHANNELS 3 Xrotation Yrotation Zrotation
							JOINT newVegas:Hair_Front1
							{
								OFFSET 0.000000 2.284103 11.993300
								CHANNELS 3 Xrotation Yrotation Zrotation
								JOINT newVegas:Hair_Front2
								{
									OFFSET 0.000000 2.284103 11.993300
									CHANNELS 3 Xrotation Yrotation Zrotation
									End Site
									{
										OFFSET 0.000000 12.208862 0.000000
									}
								}
							}
						}
						JOINT newVegas:Jowel
						{
							OFFSET 0.000000 -7.458206 6.864100
							CHANNELS 3 Xrotation Yrotation Zrotation
							End Site
							{
								OFFSET 0.000000 19.849884 0.000000
							}
						}
					}
				}
				JOINT newVegas:LeftShoulder
				{
					OFFSET 15.263000 10.923401 -0.547700
					CHANNELS 3 Xrotation Yrotation Zrotation
					JOINT newVegas:LeftArm
					{
						OFFSET 25.438599 -2.830597 -13.032500
						CHANNELS 3 Xrotation Yrotation Zrotation
						JOINT newVegas:LeftForeArm
						{
							OFFSET 29.960503 0.000000 0.000000
							CHANNELS 3 Xrotation Yrotation Zrotation
							JOINT newVegas:LeftHand
							{
								OFFSET 27.849251 0.000000 0.000000
								CHANNELS 3 Xrotation Yrotation Zrotation
								JOINT newVegas:LeftHandThumb1
								{
									OFFSET 4.487587 -3.305161 6.305391
									CHANNELS 3 Xrotation Yrotation Zrotation
									JOINT newVegas:LeftHandThumb2
									{
										OFFSET 5.480453 -3.164139 3.164143
										CHANNELS 3 Xrotation Yrotation Zrotation
										JOINT newVegas:LeftHandThumb3
										{
											OFFSET 5.159721 -2.978973 2.978967
											CHANNELS 3 Xrotation Yrotation Zrotation
											End Site
											{
												OFFSET 2.494507 5.926697 1.738678
											}
										}
									}
								}
								JOINT newVegas:LeftHandIndex1
								{
									OFFSET 18.578728 -0.527832 5.208049
									CHANNELS 3 Xrotation Yrotation Zrotation
									JOINT newVegas:LeftHandIndex2
									{
										OFFSET 3.192009 0.000000 0.000000
										CHANNELS 3 Xrotation Yrotation Zrotation
										JOINT newVegas:LeftHandIndex3
										{
											OFFSET 3.835129 0.000000 0.000000
											CHANNELS 3 Xrotation Yrotation Zrotation
											End Site
											{
												OFFSET -0.034599 3.816971 0.371180
											}
										}
									}
								}
								JOINT newVegas:LeftHandMiddle1
								{
									OFFSET 18.476105 0.000000 0.000000
									CHANNELS 3 Xrotation Yrotation Zrotation
									JOINT newVegas:LeftHandMiddle2
									{
										OFFSET 3.324875 0.000000 0.000000
										CHANNELS 3 Xrotation Yrotation Zrotation
										JOINT newVegas:LeftHandMiddle3
										{
											OFFSET 4.596550 0.000000 0.000000
											CHANNELS 3 Xrotation Yrotation Zrotation
											End Site
											{
												OFFSET 0.057701 4.578827 0.399218
											}
										}
									}
								}
								JOINT newVegas:LeftHandRing1
								{
									OFFSET 17.732719 0.121887 -4.201567
									CHANNELS 3 Xrotation Yrotation Zrotation
									JOINT newVegas:LeftHandRing2
									{
										OFFSET 2.733170 0.000000 0.000000
										CHANNELS 3 Xrotation Yrotation Zrotation
										JOINT newVegas:LeftHandRing3
										{
											OFFSET 3.178268 0.000000 0.000000
											CHANNELS 3 Xrotation Yrotation Zrotation
											End Site
											{
												OFFSET 0.119102 3.170624 0.185394
											}
										}
									}
								}
								JOINT newVegas:LeftHandPinky1
								{
									OFFSET 15.989624 -0.606689 -7.535461
									CHANNELS 3 Xrotation Yrotation Zrotation
									JOINT newVegas:LeftHandPinky2
									{
										OFFSET 2.538986 0.000000 0.000000
										CHANNELS 3 Xrotation Yrotation Zrotation
										JOINT newVegas:LeftHandPinky3
										{
											OFFSET 2.593102 0.000000 0.000000
											CHANNELS 3 Xrotation Yrotation Zrotation
											End Site
											{
												OFFSET -0.150902 2.584198 0.152708
											}
										}
									}
								}
							}
							JOINT newVegas:Left_Sleeve
							{
								OFFSET 0.267448 -0.649796 0.577675
								CHANNELS 3 Xrotation Yrotation Zrotation
								End Site
								{
									OFFSET 0.000000 15.991241 0.000000
								}
							}
							JOINT newVegas:Left_CapeC
							{
								OFFSET 15.715958 -8.608795 -6.935905
								CHANNELS 3 Xrotation Yrotation Zrotation
								JOINT newVegas:Left_CapeC1
								{
									OFFSET 0.000000 -8.688499 0.000000
									CHANNELS 3 Xrotation Yrotation Zrotation
									End Site
									{
										OFFSET 0.000000 8.688499 0.000000
									}
								}
							}
						}
						JOINT newVegas:Left_CapeB
						{
							OFFSET 26.118385 -8.608795 -7.079235
							CHANNELS 3 Xrotation Yrotation Zrotation
							JOINT newVegas:Left_CapeB1
							{
								OFFSET 0.000000 -8.688499 0.000000
								CHANNELS 3 Xrotation Yrotation Zrotation
								End Site
								{
									OFFSET 0.000000 8.688499 0.000000
								}
							}
						}
						JOINT newVegas:Left_CapeA
						{
							OFFSET 5.115639 -8.608795 -10.395809
							CHANNELS 3 Xrotation Yrotation Zrotation
							JOINT newVegas:Left_CapeA1
							{
								OFFSET 0.000000 -8.688499 0.000000
								CHANNELS 3 Xrotation Yrotation Zrotation
								End Site
								{
									OFFSET 0.000000 8.688499 0.000000
								}
							}
						}
					}
				}
				JOINT newVegas:RightShoulder
				{
					OFFSET -15.263000 10.923401 -0.547700
					CHANNELS 3 Xrotation Yrotation Zrotation
					JOINT newVegas:RightArm
					{
						OFFSET -25.438599 -2.830597 -13.032500
						CHANNELS 3 Xrotation Yrotation Zrotation
						JOINT newVegas:RightForeArm
						{
							OFFSET -29.960503 0.000000 0.000000
							CHANNELS 3 Xrotation Yrotation Zrotation
							JOINT newVegas:RightHand
							{
								OFFSET -27.849251 0.000000 0.000000
								CHANNELS 3 Xrotation Yrotation Zrotation
								JOINT newVegas:RightHandThumb1
								{
									OFFSET -4.487587 -3.305161 6.305391
									CHANNELS 3 Xrotation Yrotation Zrotation
									JOINT newVegas:RightHandThumb2
									{
										OFFSET -5.480453 -3.164139 3.164143
										CHANNELS 3 Xrotation Yrotation Zrotation
										JOINT newVegas:RightHandThumb3
										{
											OFFSET -5.159721 -2.978973 2.978967
											CHANNELS 3 Xrotation Yrotation Zrotation
											End Site
											{
												OFFSET -2.494507 5.926697 1.738678
											}
										}
									}
								}
								JOINT newVegas:RightHandIndex1
								{
									OFFSET -18.578728 -0.527832 5.208049
									CHANNELS 3 Xrotation Yrotation Zrotation
									JOINT newVegas:RightHandIndex2
									{
										OFFSET -3.192009 0.000000 0.000000
										CHANNELS 3 Xrotation Yrotation Zrotation
										JOINT newVegas:RightHandIndex3
										{
											OFFSET -3.835129 0.000000 0.000000
											CHANNELS 3 Xrotation Yrotation Zrotation
											End Site
											{
												OFFSET 0.034599 3.816971 0.371180
											}
										}
									}
								}
								JOINT newVegas:RightHandMiddle1
								{
									OFFSET -18.476105 0.000000 0.000000
									CHANNELS 3 Xrotation Yrotation Zrotation
									JOINT newVegas:RightHandMiddle2
									{
										OFFSET -3.324875 0.000000 0.000000
										CHANNELS 3 Xrotation Yrotation Zrotation
										JOINT newVegas:RightHandMiddle3
										{
											OFFSET -4.596550 0.000000 0.000000
											CHANNELS 3 Xrotation Yrotation Zrotation
											End Site
											{
												OFFSET -0.057701 4.578827 0.399218
											}
										}
									}
								}
								JOINT newVegas:RightHandRing1
								{
									OFFSET -17.732719 0.121887 -4.201567
									CHANNELS 3 Xrotation Yrotation Zrotation
									JOINT newVegas:RightHandRing2
									{
										OFFSET -2.733170 0.000000 0.000000
										CHANNELS 3 Xrotation Yrotation Zrotation
										JOINT newVegas:RightHandRing3
										{
											OFFSET -3.178268 0.000000 0.000000
											CHANNELS 3 Xrotation Yrotation Zrotation
											End Site
											{
												OFFSET -0.119102 3.170624 0.185394
											}
										}
									}
								}
								JOINT newVegas:RightHandPinky1
								{
									OFFSET -15.989624 -0.606689 -7.535461
									CHANNELS 3 Xrotation Yrotation Zrotation
									JOINT newVegas:RightHandPinky2
									{
										OFFSET -2.538986 0.000000 0.000000
										CHANNELS 3 Xrotation Yrotation Zrotation
										JOINT newVegas:RightHandPinky3
										{
											OFFSET -2.593102 0.000000 0.000000
											CHANNELS 3 Xrotation Yrotation Zrotation
											End Site
											{
												OFFSET 0.150902 2.584198 0.152708
											}
										}
									}
								}
							}
							JOINT newVegas:Right_CapeC
							{
								OFFSET -15.715958 -8.608795 -6.935905
								CHANNELS 3 Xrotation Yrotation Zrotation
								JOINT newVegas:Right_CapeC1
								{
									OFFSET 0.000000 -8.688499 0.000000
									CHANNELS 3 Xrotation Yrotation Zrotation
									End Site
									{
										OFFSET 0.000000 8.688499 0.000000
									}
								}
							}
							JOINT newVegas:Right_Sleeve
							{
								OFFSET -0.267448 -0.649994 0.577675
								CHANNELS 3 Xrotation Yrotation Zrotation
								End Site
								{
									OFFSET 0.000000 15.991302 0.000000
								}
							}
						}
						JOINT newVegas:Right_CapeA
						{
							OFFSET -5.115540 -8.608795 -10.395824
							CHANNELS 3 Xrotation Yrotation Zrotation
							JOINT newVegas:Right_CapeA1
							{
								OFFSET 0.000000 -8.688499 0.000000
								CHANNELS 3 Xrotation Yrotation Zrotation
								End Site
								{
									OFFSET 0.000000 8.688499 0.000000
								}
							}
						}
						JOINT newVegas:Right_CapeB
						{
							OFFSET -26.118187 -8.608795 -7.079266
							CHANNELS 3 Xrotation Yrotation Zrotation
							JOINT newVegas:Right_CapeB1
							{
								OFFSET 0.000000 -8.688499 0.000000
								CHANNELS 3 Xrotation Yrotation Zrotation
								End Site
								{
									OFFSET 0.000000 8.688499 0.000000
								}
							}
						}
					}
				}
				JOINT newVegas:Left_Collar
				{
					OFFSET 18.625099 8.655502 8.828100
					CHANNELS 3 Xrotation Yrotation Zrotation
					JOINT newVegas:Left_Collar1
					{
						OFFSET 14.783401 10.540405 -1.259500
						CHANNELS 3 Xrotation Yrotation Zrotation
						End Site
						{
							OFFSET 0.000000 18.199875 0.000000
						}
					}
				}
				JOINT newVegas:Collar_Back
				{
					OFFSET 0.000000 15.630707 -20.132601
					CHANNELS 3 Xrotation Yrotation Zrotation
					End Site
					{
						OFFSET 0.000000 22.523010 0.000000
					}
				}
				JOINT newVegas:Left_Peck
				{
					OFFSET 17.239599 -5.132599 25.482599
					CHANNELS 3 Xrotation Yrotation Zrotation
					End Site
					{
						OFFSET 0.000000 22.523010 0.000000
					}
				}
				JOINT newVegas:Right_Peck
				{
					OFFSET -17.239599 -5.132202 25.482599
					CHANNELS 3 Xrotation Yrotation Zrotation
					End Site
					{
						OFFSET 0.000000 22.523010 0.000000
					}
				}
				JOINT newVegas:Right_Collar
				{
					OFFSET -18.625099 8.655792 8.828100
					CHANNELS 3 Xrotation Yrotation Zrotation
					JOINT newVegas:Right_Collar1
					{
						OFFSET -14.783401 10.539993 -1.259500
						CHANNELS 3 Xrotation Yrotation Zrotation
						End Site
						{
							OFFSET 0.000000 18.199631 0.000000
						}
					}
				}
			}
		}
		JOINT newVegas:Belly
		{
			OFFSET 0.000000 -6.540398 9.014299
			CHANNELS 3 Xrotation Yrotation Zrotation
			End Site
			{
				OFFSET 0.000000 11.566666 0.000000
			}
		}
	}
	JOINT newVegas:ElvisFacialAnim_Joint
	{
		OFFSET 1.000000 -95.330101 -8.825800
		CHANNELS 3 Xrotation Yrotation Zrotation
		End Site
		{
			OFFSET 0.000000 35.315800 0.000000
		}
	}
}
MOTION
Frames: 4
Frame Time: 0.033333
-90.589981 27.663490 67.510979 -55.413857 -116.717128 13.816235 0.000000 -0.000000 -0.000000 -38.017427 13.344120 7.596588 87.867973 6.031066 -7.410460 43.628875 -6.175868 8.130037 -0.000000 -0.000001 -0.000001 0.000003 -0.000001 0.000002 -133.212280 -40.424458 17.086744 100.978152 -16.969234 -1.165343 73.866816 5.646721 -35.017082 0.000002 0.000000 -0.000001 0.000001 -0.000001 -0.000000 7.388594 -5.702113 16.016689 12.081612 -10.057198 11.263411 12.046569 -10.333047 11.058410 6.171684 0.127791 1.025640 6.171718 0.127795 1.025656 0.000003 -0.000001 -0.000001 6.171734 0.127769 1.025653 6.171656 0.127783 1.025650 -0.000000 0.000002 -0.000000 0.000003 -0.000001 -0.000001 10.300467 -20.912301 34.410667 -103.052118 -15.783645 -59.926714 0.000057 -84.576525 0.000047 55.914254 13.852657 24.208883 -6.029144 -6.099900 4.689068 4.243213 8.565367 25.584458 0.000002 -0.000000 -0.000003 -0.681768 -9.757965 -4.135581 -0.000001 0.000249 -0.002435 0.000000 -0.000000 -0.000000 0.078261 2.809686 -2.558484 0.000000 -0.000006 -0.000002 0.000000 -0.000002 0.000001 0.351836 11.170542 -1.455728 -0.000003 0.000016 -0.000002 -0.000001 -0.000001 -0.000001 0.426860 18.685535 -0.460779 0.000000 -0.000005 -0.000006 -0.000000 0.000002 0.000000 -0.000000 0.000000 -0.000000 -0.000000 0.000000 -0.000000 -0.000000 0.000000 0.000000 -0.000001 0.000001 0.000002 -0.000000 0.000001 0.000001 -0.000001 0.000001 0.000002 -0.000002 0.000002 0.000002 -41.950762 -41.937006 -3.615272 -11.399469 9.927984 42.984505 0.001338 96.139871 -0.001285 13.110123 -11.329806 -67.886275 -21.396797 8.031325 -7.820631 7.479137 -24.316754 -2.907338 0.000003 -0.000003 -0.000001 -0.351959 5.120276 3.360456 0.000128 -0.034662 0.425452 -0.000000 -0.000005 -0.000001 0.056934 -2.570753 3.244568 0.000631 -0.076869 0.943571 -0.000000 0.000000 0.000000 0.447440 -9.329039 3.034747 0.000957 -0.094600 1.161279 0.000000 -0.000003 -0.000001 0.797095 -14.996766 2.923367 0.001421 -0.115143 1.413473 -0.000000 -0.000000 0.000000 -0.000001 0.000001 -0.000000 -0.000001 0.000000 0.000000 -0.000001 0.000001 -0.000000 -0.000000 0.000002 -0.000003 -0.000001 0.000003 -0.000004 -0.000000 0.000002 -0.000003 -0.000001 0.000003 -0.000003 0.000001 -0.000002 -0.000001 0.000001 -0.000002 -0.000001 0.000001 -0.000002 -0.000001 0.000001 -0.000002 -0.000001 0.000001 -0.000002 -0.000001 0.000001 -0.000002 -0.000001 0.000001 -0.000002 -0.000001 0.000001 -0.000002 -0.000000 0.000000 -0.000000 -0.000000 
-91.848442 28.213676 63.144897 -53.214103 -121.863047 19.521094 -0.000001 -0.000001 -0.000002 -53.528165 13.315758 11.610012 99.682649 6.139403 -7.216827 37.363327 -7.528557 10.229889 0.000000 -0.000001 -0.000001 -0.000002 0.000000 -0.000002 -127.645936 -36.896976 19.556181 104.394544 -17.809174 -1.357434 68.353965 12.565355 -30.840275 0.000000 0.000000 -0.000000 0.000001 0.000000 -0.000000 7.342131 -3.961277 14.612865 12.823815 -9.094431 11.243172 12.820277 -9.274688 11.104548 6.215855 0.225205 0.239567 6.215836 0.225217 0.239571 -0.000001 0.000001 -0.000001 6.215849 0.225177 0.239574 6.215869 0.225180 0.239568 -0.000003 0.000002 -0.000001 -0.000001 0.000001 -0.000001 7.271921 -16.514557 27.940200 -101.842786 -14.948397 -67.247372 -0.000076 -86.030030 -0.000097 56.372772 12.246075 28.254823 -6.029933 -6.100513 4.691082 4.243548 8.563880 25.584203 0.000001 0.000003 -0.000002 -0.681767 -9.757962 -4.135580 -0.000001 0.000342 -0.003337 0.000000 -0.000002 0.000001 0.078266 2.809691 -2.558480 -0.000002 0.000002 0.000002 -0.000000 0.000002 0.000001 0.351855 11.171173 -1.455661 -0.000003 0.000018 -0.000003 -0.000000 0.000001 0.000000 0.426865 18.686549 -0.460675 0.000001 -0.000006 -0.000002 -0.000001 0.000004 -0.000000 0.000001 0.000000 -0.000002 0.000001 0.000000 -0.000002 0.000000 0.000000 -0.000002 0.000000 0.000000 0.000000 0.000000 -0.000001 -0.000001 0.000000 0.000000 0.000000 -0.000001 0.000001 0.000001 -42.052238 -40.324235 -4.072005 -11.835120 7.905982 43.458434 0.000082 98.657998 -0.000101 16.498114 -11.257164 -67.815452 -21.396804 8.031335 -7.820626 7.479263 -24.316742 -2.907317 0.000001 -0.000003 -0.000003 -0.351959 5.120283 3.360457 0.000129 -0.034657 0.425453 0.000000 -0.000001 0.000000 0.056934 -2.570752 3.244567 0.000632 -0.076855 0.943579 0.000000 -0.000001 -0.000000 0.447439 -9.329033 3.034748 0.000958 -0.094595 1.161280 -0.000000 -0.000003 0.000000 0.797096 -14.996770 2.923370 0.001419 -0.115136 1.413470 -0.000000 0.000001 0.000001 -0.000002 0.000001 -0.000000 -0.000002 -0.000001 0.000001 -0.000002 0.000001 -0.000000 -0.000001 -0.000002 0.000002 -0.000001 -0.000001 0.000004 -0.000001 -0.000002 0.000002 -0.000001 -0.000001 0.000003 -0.000000 0.000002 -0.000000 -0.000000 0.000002 -0.000000 -0.000000 0.000002 -0.000000 -0.000000 0.000002 -0.000000 -0.000000 0.000002 -0.000000 -0.000000 0.000002 -0.000000 -0.000000 0.000002 -0.000000 -0.000000 -0.000001 -0.000000 -0.000001 -0.000001 -0.000002 
-91.134888 30.494835 57.216110 -51.644652 -127.907095 25.761882 0.000003 -0.000002 0.000000 -69.562396 13.376657 15.680337 106.811147 5.869144 -7.423850 25.107543 -3.948287 12.387783 -0.000000 0.000001 0.000001 -0.000000 0.000002 0.000003 -119.220119 -25.929222 17.180902 107.199286 -16.459877 -0.665956 53.601709 19.252806 -24.633205 0.000000 0.000001 -0.000001 -0.000001 0.000001 -0.000001 7.260582 -2.296414 12.582837 13.510338 -7.990192 10.656082 13.538559 -8.050632 10.576363 6.245474 0.274435 -0.570707 6.245485 0.274428 -0.570673 0.000004 0.000002 -0.000002 6.245496 0.274438 -0.570700 6.245443 0.274452 -0.570697 0.000000 0.000000 -0.000002 0.000004 0.000002 -0.000002 6.358869 -15.287934 25.502574 -97.733190 -13.121010 -69.184933 -0.000075 -85.979569 -0.000043 54.707940 10.505838 34.476954 -6.030595 -6.101372 4.692791 4.243539 8.563713 25.584176 0.000002 0.000002 0.000001 -0.681767 -9.757978 -4.135581 0.000003 0.000396 -0.003846 0.000000 0.000004 0.000002 0.078249 2.809378 -2.558514 -0.000001 0.000003 -0.000001 0.000000 0.000002 0.000002 0.351855 11.171244 -1.455657 -0.000001 -0.000008 -0.000001 0.000000 0.000003 0.000001 0.426868 18.686942 -0.460639 -0.000000 0.000009 0.000000 -0.000000 0.000000 -0.000000 0.000002 0.000002 0.000003 0.000002 0.000002 0.000003 0.000002 0.000001 0.000003 -0.000001 0.000002 0.000002 -0.000000 0.000001 0.000002 -0.000001 0.000002 0.000002 -0.000000 0.000003 0.000002 -40.771271 -38.405256 -3.650398 -13.471080 6.845460 44.415658 -0.002305 99.562534 0.002292 21.132013 -11.412259 -67.852055 -21.396795 8.031322 -7.820627 7.479874 -24.316664 -2.907214 0.000003 -0.000004 -0.000001 -0.351959 5.120278 3.360457 0.000127 -0.034664 0.425451 -0.000001 0.000001 0.000001 0.056932 -2.570744 3.244569 0.000633 -0.076862 0.943580 0.000001 -0.000003 0.000000 0.447439 -9.329034 3.034750 0.000960 -0.094591 1.161277 0.000000 0.000001 0.000001 0.797095 -14.996765 2.923369 0.001418 -0.115146 1.413469 0.000001 0.000002 0.000000 -0.000000 -0.000001 0.000000 -0.000001 0.000000 0.000000 -0.000000 -0.000001 0.000000 -0.000001 0.000002 -0.000001 -0.000001 0.000003 -0.000001 -0.000001 0.000002 -0.000001 -0.000001 0.000003 -0.000002 -0.000001 0.000000 0.000002 -0.000001 0.000000 0.000002 -0.000001 0.000000 0.000002 -0.000001 0.000000 0.000002 -0.000001 0.000000 0.000002 -0.000001 0.000000 0.000002 -0.000001 0.000000 0.000002 0.000001 0.000001 -0.000000 0.000003 -0.000002 0.000000 
-88.481575 34.787106 51.474899 -51.765611 -134.212425 31.001867 0.000002 0.000001 0.000001 -80.416086 13.880679 18.635684 105.507203 5.563766 -8.370513 11.247909 2.711156 12.161129 0.000001 -0.000001 -0.000000 -0.000001 -0.000000 -0.000001 -106.949383 -13.531767 13.626927 109.551180 -6.517883 1.444035 27.175127 19.955794 -16.393086 -0.000000 -0.000000 -0.000001 -0.000001 -0.000001 -0.000001 7.352233 -1.029607 11.030944 14.043645 -7.109689 9.482382 14.080476 -7.105147 9.432478 6.286346 0.321012 -1.148219 6.286367 0.321033 -1.148195 0.000001 -0.000001 -0.000001 6.286364 0.321027 -1.148216 6.286294 0.321016 -1.148207 -0.000000 0.000001 -0.000002 0.000001 -0.000001 -0.000001 6.086539 -14.861271 24.659893 -93.604061 -11.322740 -69.911446 0.000131 -83.172689 0.000162 53.003798 8.262259 42.067538 -6.031078 -6.102265 4.694196 4.243268 8.564611 25.584336 0.000003 0.000000 -0.000004 -0.681767 -9.757987 -4.135584 -0.000000 0.000400 -0.004023 0.000000 -0.000002 -0.000000 0.078222 2.808780 -2.558576 -0.000000 -0.000002 -0.000007 -0.000000 -0.000001 0.000000 0.351844 11.170844 -1.455696 -0.000002 0.000001 0.000001 -0.000001 0.000003 0.000001 0.426871 18.686822 -0.460651 -0.000001 0.000007 -0.000001 -0.000001 -0.000003 0.000000 -0.000002 -0.000001 0.000003 -0.000002 -0.000001 0.000003 -0.000002 -0.000001 0.000004 -0.000002 0.000002 0.000001 -0.000002 0.000001 0.000002 -0.000002 0.000002 0.000001 -0.000002 0.000001 0.000000 -38.724871 -34.240893 -3.158805 -15.761269 5.183149 46.418273 -0.000849 98.100805 0.000830 26.614177 -10.591760 -68.245235 -21.396790 8.031320 -7.820638 7.480976 -24.316522 -2.907005 0.000001 -0.000003 0.000001 -0.351959 5.120269 3.360457 0.000129 -0.034653 0.425454 -0.000000 0.000006 0.000001 0.056934 -2.570760 3.244567 0.000634 -0.076858 0.943577 0.000001 -0.000003 -0.000000 0.447440 -9.329043 3.034750 0.000959 -0.094598 1.161280 -0.000002 0.000001 -0.000000 0.797095 -14.996761 2.923370 0.001419 -0.115138 1.413471 0.000000 0.000001 0.000001 0.000000 -0.000001 0.000001 -0.000001 -0.000002 0.000000 0.000000 -0.000002 0.000001 0.000000 0.000000 0.000001 0.000000 0.000001 0.000001 0.000000 0.000000 0.000001 0.000000 0.000001 0.000001 0.000001 -0.000001 -0.000000 0.000001 -0.000001 -0.000000 0.000001 -0.000001 -0.000000 0.000001 -0.000001 -0.000000 0.000001 -0.000001 -0.000000 0.000001 -0.000001 -0.000000 0.000001 -0.000001 -0.000000 0.000000 0.000003 0.000001 0.000002 0.000001 0.000001 
